<mxfile host="app.diagrams.net" modified="2021-06-22T12:58:11.631Z" agent="5.0 (Windows NT 10.0; Win64; x64) AppleWebKit/537.36 (KHTML, like Gecko) Chrome/86.0.4240.198 Safari/537.36" etag="hcpKTMqiEFLpBYDFvlgH" version="14.8.0" type="github">
  <diagram name="Page-1" id="2a216829-ef6e-dabb-86c1-c78162f3ba2b">
    <mxGraphModel dx="1662" dy="794" grid="1" gridSize="10" guides="1" tooltips="1" connect="1" arrows="1" fold="1" page="1" pageScale="1" pageWidth="850" pageHeight="1100" background="none" math="0" shadow="0">
      <root>
        <mxCell id="0" />
        <mxCell id="1" parent="0" />
        <mxCell id="TLTKrxweP8_kDLISeRTv-2" value="&lt;pre style=&quot;background-color: #282c34 ; color: #bbbbbb ; font-family: &amp;#34;jetbrains mono&amp;#34; , monospace ; font-size: 10.5pt&quot;&gt;&lt;span style=&quot;color: #89ca78&quot;&gt;/saveUserTaskFeedbackList&lt;/span&gt;&lt;/pre&gt;" style="ellipse;shape=cloud;whiteSpace=wrap;html=1;" parent="1" vertex="1">
          <mxGeometry x="240" y="50" width="120" height="80" as="geometry" />
        </mxCell>
        <mxCell id="TLTKrxweP8_kDLISeRTv-3" value="保存部门的措施反馈信息" style="text;html=1;strokeColor=none;fillColor=none;align=center;verticalAlign=middle;whiteSpace=wrap;rounded=0;" parent="1" vertex="1">
          <mxGeometry x="225" y="30" width="150" height="20" as="geometry" />
        </mxCell>
        <mxCell id="TLTKrxweP8_kDLISeRTv-4" style="edgeStyle=orthogonalEdgeStyle;rounded=0;orthogonalLoop=1;jettySize=auto;html=1;exitX=0.5;exitY=1;exitDx=0;exitDy=0;" parent="1" source="TLTKrxweP8_kDLISeRTv-3" target="TLTKrxweP8_kDLISeRTv-3" edge="1">
          <mxGeometry relative="1" as="geometry" />
        </mxCell>
        <mxCell id="TLTKrxweP8_kDLISeRTv-48" style="edgeStyle=orthogonalEdgeStyle;rounded=0;orthogonalLoop=1;jettySize=auto;html=1;entryX=0;entryY=0.5;entryDx=0;entryDy=0;" parent="1" source="TLTKrxweP8_kDLISeRTv-6" target="TLTKrxweP8_kDLISeRTv-47" edge="1">
          <mxGeometry relative="1" as="geometry" />
        </mxCell>
        <mxCell id="TLTKrxweP8_kDLISeRTv-6" value="&lt;pre style=&quot;background-color: #282c34 ; color: #bbbbbb ; font-family: &amp;#34;jetbrains mono&amp;#34; , monospace ; font-size: 10.5pt&quot;&gt;&lt;pre style=&quot;font-family: &amp;#34;jetbrains mono&amp;#34; , monospace ; font-size: 10.5pt&quot;&gt;&lt;span style=&quot;color: #89ca78&quot;&gt;/refineFeedbackSubmitApproval&lt;/span&gt;&lt;/pre&gt;&lt;/pre&gt;" style="ellipse;shape=cloud;whiteSpace=wrap;html=1;" parent="1" vertex="1">
          <mxGeometry x="260" y="420" width="120" height="80" as="geometry" />
        </mxCell>
        <mxCell id="TLTKrxweP8_kDLISeRTv-7" value="" style="shape=curlyBracket;whiteSpace=wrap;html=1;rounded=1;" parent="1" vertex="1">
          <mxGeometry x="410" y="30" width="20" height="120" as="geometry" />
        </mxCell>
        <mxCell id="TLTKrxweP8_kDLISeRTv-8" value="反馈任务&lt;br&gt;&lt;pre style=&quot;background-color: #282c34 ; color: #bbbbbb ; font-family: &amp;#34;jetbrains mono&amp;#34; , monospace ; font-size: 10.5pt&quot;&gt;&lt;span style=&quot;color: #e5c07b&quot;&gt;TaskReformKeyFeedbackExtendRspVo&lt;/span&gt;&lt;/pre&gt;" style="text;html=1;strokeColor=none;fillColor=none;align=center;verticalAlign=middle;whiteSpace=wrap;rounded=0;" parent="1" vertex="1">
          <mxGeometry x="470" y="70" width="80" height="20" as="geometry" />
        </mxCell>
        <mxCell id="TLTKrxweP8_kDLISeRTv-9" value="" style="shape=curlyBracket;whiteSpace=wrap;html=1;rounded=1;" parent="1" vertex="1">
          <mxGeometry x="635" y="20" width="20" height="120" as="geometry" />
        </mxCell>
        <mxCell id="TLTKrxweP8_kDLISeRTv-10" value="任务信息" style="text;html=1;strokeColor=none;fillColor=none;align=center;verticalAlign=middle;whiteSpace=wrap;rounded=0;" parent="1" vertex="1">
          <mxGeometry x="675" y="30" width="70" height="20" as="geometry" />
        </mxCell>
        <mxCell id="TLTKrxweP8_kDLISeRTv-44" style="edgeStyle=orthogonalEdgeStyle;rounded=0;orthogonalLoop=1;jettySize=auto;html=1;entryX=0;entryY=0;entryDx=0;entryDy=52.5;entryPerimeter=0;" parent="1" source="TLTKrxweP8_kDLISeRTv-11" target="TLTKrxweP8_kDLISeRTv-41" edge="1">
          <mxGeometry relative="1" as="geometry">
            <Array as="points">
              <mxPoint x="700" y="202" />
            </Array>
          </mxGeometry>
        </mxCell>
        <mxCell id="TLTKrxweP8_kDLISeRTv-11" value="部门的反馈列表" style="text;html=1;strokeColor=none;fillColor=none;align=center;verticalAlign=middle;whiteSpace=wrap;rounded=0;" parent="1" vertex="1">
          <mxGeometry x="655" y="90" width="90" height="20" as="geometry" />
        </mxCell>
        <mxCell id="TLTKrxweP8_kDLISeRTv-12" value="" style="shape=curlyBracket;whiteSpace=wrap;html=1;rounded=1;" parent="1" vertex="1">
          <mxGeometry x="745" y="50" width="20" height="120" as="geometry" />
        </mxCell>
        <mxCell id="TLTKrxweP8_kDLISeRTv-13" value="部门对所有反馈的总体信息" style="text;html=1;strokeColor=none;fillColor=none;align=center;verticalAlign=middle;whiteSpace=wrap;rounded=0;" parent="1" vertex="1">
          <mxGeometry x="755" y="70" width="180" height="20" as="geometry" />
        </mxCell>
        <mxCell id="TLTKrxweP8_kDLISeRTv-43" style="edgeStyle=orthogonalEdgeStyle;rounded=0;orthogonalLoop=1;jettySize=auto;html=1;entryX=0.5;entryY=1;entryDx=0;entryDy=0;entryPerimeter=0;exitX=1;exitY=0.5;exitDx=0;exitDy=0;" parent="1" source="TLTKrxweP8_kDLISeRTv-14" target="TLTKrxweP8_kDLISeRTv-42" edge="1">
          <mxGeometry relative="1" as="geometry">
            <Array as="points">
              <mxPoint x="875" y="130" />
              <mxPoint x="1035" y="130" />
            </Array>
          </mxGeometry>
        </mxCell>
        <mxCell id="TLTKrxweP8_kDLISeRTv-14" value="对措施的反馈列表" style="text;html=1;strokeColor=none;fillColor=none;align=center;verticalAlign=middle;whiteSpace=wrap;rounded=0;" parent="1" vertex="1">
          <mxGeometry x="770" y="140" width="105" height="20" as="geometry" />
        </mxCell>
        <mxCell id="TLTKrxweP8_kDLISeRTv-41" value="&lt;pre style=&quot;background-color: #282c34 ; color: #bbbbbb ; font-family: &amp;#34;jetbrains mono&amp;#34; , monospace ; font-size: 10.5pt&quot;&gt;&lt;span style=&quot;color: #89ca78&quot;&gt;t_task_reform_key_feedback_task_department&lt;/span&gt;&lt;/pre&gt;" style="shape=cylinder3;whiteSpace=wrap;html=1;boundedLbl=1;backgroundOutline=1;size=15;" parent="1" vertex="1">
          <mxGeometry x="1005" y="150" width="60" height="80" as="geometry" />
        </mxCell>
        <mxCell id="TLTKrxweP8_kDLISeRTv-42" value="&lt;pre style=&quot;background-color: #282c34 ; color: #bbbbbb ; font-family: &amp;#34;jetbrains mono&amp;#34; , monospace ; font-size: 10.5pt&quot;&gt;&lt;span style=&quot;color: #89ca78&quot;&gt;t_task_reform_key_feedback_task_fill&lt;/span&gt;&lt;/pre&gt;" style="shape=cylinder3;whiteSpace=wrap;html=1;boundedLbl=1;backgroundOutline=1;size=15;" parent="1" vertex="1">
          <mxGeometry x="1005" y="30" width="60" height="80" as="geometry" />
        </mxCell>
        <mxCell id="TLTKrxweP8_kDLISeRTv-45" value="牵头单位提交反馈" style="text;html=1;strokeColor=none;fillColor=none;align=center;verticalAlign=middle;whiteSpace=wrap;rounded=0;" parent="1" vertex="1">
          <mxGeometry x="260" y="400" width="135" height="20" as="geometry" />
        </mxCell>
        <mxCell id="TLTKrxweP8_kDLISeRTv-51" style="edgeStyle=orthogonalEdgeStyle;rounded=0;orthogonalLoop=1;jettySize=auto;html=1;entryX=0;entryY=0.5;entryDx=0;entryDy=0;" parent="1" source="TLTKrxweP8_kDLISeRTv-47" target="TLTKrxweP8_kDLISeRTv-50" edge="1">
          <mxGeometry relative="1" as="geometry" />
        </mxCell>
        <mxCell id="TLTKrxweP8_kDLISeRTv-47" value="&lt;pre style=&quot;background-color: #282c34 ; color: #bbbbbb ; font-family: &amp;#34;jetbrains mono&amp;#34; , monospace ; font-size: 10.5pt&quot;&gt;&lt;span style=&quot;color: #61afef&quot;&gt;completeTask&lt;/span&gt;&lt;/pre&gt;" style="shape=step;perimeter=stepPerimeter;whiteSpace=wrap;html=1;fixedSize=1;" parent="1" vertex="1">
          <mxGeometry x="480" y="420" width="120" height="80" as="geometry" />
        </mxCell>
        <mxCell id="TLTKrxweP8_kDLISeRTv-49" value="完成反馈流程的牵头单位任务" style="text;html=1;strokeColor=none;fillColor=none;align=center;verticalAlign=middle;whiteSpace=wrap;rounded=0;" parent="1" vertex="1">
          <mxGeometry x="495" y="390" width="90" height="20" as="geometry" />
        </mxCell>
        <mxCell id="TLTKrxweP8_kDLISeRTv-53" style="edgeStyle=orthogonalEdgeStyle;rounded=0;orthogonalLoop=1;jettySize=auto;html=1;" parent="1" source="TLTKrxweP8_kDLISeRTv-50" edge="1">
          <mxGeometry relative="1" as="geometry">
            <mxPoint x="760" y="620" as="targetPoint" />
          </mxGeometry>
        </mxCell>
        <mxCell id="TLTKrxweP8_kDLISeRTv-57" style="edgeStyle=orthogonalEdgeStyle;rounded=0;orthogonalLoop=1;jettySize=auto;html=1;" parent="1" source="TLTKrxweP8_kDLISeRTv-50" target="TLTKrxweP8_kDLISeRTv-56" edge="1">
          <mxGeometry relative="1" as="geometry" />
        </mxCell>
        <mxCell id="TLTKrxweP8_kDLISeRTv-50" value="&lt;pre style=&quot;background-color: #282c34 ; color: #bbbbbb ; font-family: &amp;#34;jetbrains mono&amp;#34; , monospace ; font-size: 10.5pt&quot;&gt;&lt;span style=&quot;color: #ef596f&quot;&gt;taskReformKeyFeedbackTaskDepartmentDao&lt;/span&gt;&lt;/pre&gt;" style="shape=step;perimeter=stepPerimeter;whiteSpace=wrap;html=1;fixedSize=1;" parent="1" vertex="1">
          <mxGeometry x="700" y="420" width="120" height="80" as="geometry" />
        </mxCell>
        <mxCell id="TLTKrxweP8_kDLISeRTv-52" value="涉及的taskReformFeedbackTaskDepartment的状态修改" style="text;html=1;strokeColor=none;fillColor=none;align=center;verticalAlign=middle;whiteSpace=wrap;rounded=0;" parent="1" vertex="1">
          <mxGeometry x="730" y="390" width="40" height="20" as="geometry" />
        </mxCell>
        <mxCell id="TLTKrxweP8_kDLISeRTv-55" value="&lt;pre style=&quot;background-color: #282c34 ; color: #bbbbbb ; font-family: &amp;#34;jetbrains mono&amp;#34; , monospace ; font-size: 10.5pt&quot;&gt;&lt;span style=&quot;color: #61afef&quot;&gt;Status&lt;/span&gt;&lt;span style=&quot;color: #d19a66&quot;&gt;(2)：牵头单位已反馈&lt;/span&gt;&lt;/pre&gt;&lt;pre style=&quot;background-color: #282c34 ; color: #bbbbbb ; font-family: &amp;#34;jetbrains mono&amp;#34; , monospace ; font-size: 10.5pt&quot;&gt;&lt;pre style=&quot;font-family: &amp;#34;jetbrains mono&amp;#34; , monospace ; font-size: 10.5pt&quot;&gt;&lt;span style=&quot;color: #61afef&quot;&gt;ZbStatus&lt;/span&gt;&lt;span style=&quot;color: #d19a66&quot;&gt;(1)：未审批&lt;/span&gt;&lt;/pre&gt;&lt;/pre&gt;" style="text;html=1;strokeColor=none;fillColor=none;align=center;verticalAlign=middle;whiteSpace=wrap;rounded=0;" parent="1" vertex="1">
          <mxGeometry x="830" y="540" width="40" height="20" as="geometry" />
        </mxCell>
        <mxCell id="TLTKrxweP8_kDLISeRTv-58" style="edgeStyle=orthogonalEdgeStyle;rounded=0;orthogonalLoop=1;jettySize=auto;html=1;" parent="1" source="TLTKrxweP8_kDLISeRTv-56" edge="1">
          <mxGeometry relative="1" as="geometry">
            <mxPoint x="1070" y="640" as="targetPoint" />
          </mxGeometry>
        </mxCell>
        <mxCell id="TLTKrxweP8_kDLISeRTv-56" value="&lt;pre style=&quot;background-color: #282c34 ; color: #bbbbbb ; font-family: &amp;#34;jetbrains mono&amp;#34; , monospace ; font-size: 10.5pt&quot;&gt;&lt;span style=&quot;color: #ef596f&quot;&gt;taskPushService&lt;/span&gt;&lt;/pre&gt;" style="shape=step;perimeter=stepPerimeter;whiteSpace=wrap;html=1;fixedSize=1;" parent="1" vertex="1">
          <mxGeometry x="1010" y="420" width="120" height="80" as="geometry" />
        </mxCell>
        <mxCell id="TLTKrxweP8_kDLISeRTv-59" value="&lt;pre style=&quot;background-color: #282c34 ; color: #bbbbbb ; font-family: &amp;#34;jetbrains mono&amp;#34; , monospace ; font-size: 10.5pt&quot;&gt;&lt;span style=&quot;color: #89ca78&quot;&gt;t_task_reform_key_feedback_task_department&lt;/span&gt;&lt;/pre&gt;" style="shape=cylinder3;whiteSpace=wrap;html=1;boundedLbl=1;backgroundOutline=1;size=15;" parent="1" vertex="1">
          <mxGeometry x="730" y="620" width="60" height="80" as="geometry" />
        </mxCell>
        <mxCell id="TLTKrxweP8_kDLISeRTv-60" value="推送消息" style="text;html=1;strokeColor=none;fillColor=none;align=center;verticalAlign=middle;whiteSpace=wrap;rounded=0;" parent="1" vertex="1">
          <mxGeometry x="1035" y="390" width="70" height="20" as="geometry" />
        </mxCell>
        <mxCell id="TLTKrxweP8_kDLISeRTv-61" value="&lt;pre style=&quot;background-color: rgb(40 , 44 , 52) ; color: rgb(187 , 187 , 187) ; font-family: &amp;#34;jetbrains mono&amp;#34; , monospace ; font-size: 10.5pt&quot;&gt;&lt;span style=&quot;color: rgb(229 , 192 , 123)&quot;&gt;TaskReformKeyFeedbackExtendRspVo（从库里取出所有数据&lt;/span&gt;&lt;/pre&gt;" style="text;html=1;strokeColor=none;fillColor=none;align=center;verticalAlign=middle;whiteSpace=wrap;rounded=0;" parent="1" vertex="1">
          <mxGeometry x="1130" y="540" width="40" height="20" as="geometry" />
        </mxCell>
        <mxCell id="TLTKrxweP8_kDLISeRTv-65" value="taskreformKeyFeedbackTaskFill的taskinfoid需要换成主任务的taskinfoid（原本是试点/反馈任务的id" style="text;html=1;strokeColor=none;fillColor=none;align=center;verticalAlign=middle;whiteSpace=wrap;rounded=0;" parent="1" vertex="1">
          <mxGeometry x="1100" y="580" width="170" height="20" as="geometry" />
        </mxCell>
        <mxCell id="TLTKrxweP8_kDLISeRTv-66" value="&lt;pre style=&quot;background-color: #282c34 ; color: #bbbbbb ; font-family: &amp;#34;jetbrains mono&amp;#34; , monospace ; font-size: 10.5pt&quot;&gt;&lt;span style=&quot;color: #61afef&quot;&gt;taskFeedback&lt;/span&gt;&lt;/pre&gt;" style="rhombus;whiteSpace=wrap;html=1;" parent="1" vertex="1">
          <mxGeometry x="1030" y="640" width="80" height="80" as="geometry" />
        </mxCell>
        <mxCell id="TLTKrxweP8_kDLISeRTv-67" value="" style="shape=curlyBracket;whiteSpace=wrap;html=1;rounded=1;" parent="1" vertex="1">
          <mxGeometry x="140" y="90" width="20" height="390" as="geometry" />
        </mxCell>
        <mxCell id="TLTKrxweP8_kDLISeRTv-68" value="牵头单位的一次提交过程" style="text;html=1;strokeColor=none;fillColor=none;align=center;verticalAlign=middle;whiteSpace=wrap;rounded=0;" parent="1" vertex="1">
          <mxGeometry x="10" y="275" width="80" height="20" as="geometry" />
        </mxCell>
        <mxCell id="TLTKrxweP8_kDLISeRTv-73" style="edgeStyle=orthogonalEdgeStyle;rounded=0;orthogonalLoop=1;jettySize=auto;html=1;" parent="1" source="TLTKrxweP8_kDLISeRTv-69" edge="1">
          <mxGeometry relative="1" as="geometry">
            <mxPoint x="600" y="940" as="targetPoint" />
          </mxGeometry>
        </mxCell>
        <mxCell id="TLTKrxweP8_kDLISeRTv-69" value="&lt;pre style=&quot;background-color: #282c34 ; color: #bbbbbb ; font-family: &amp;#34;jetbrains mono&amp;#34; , monospace ; font-size: 10.5pt&quot;&gt;&lt;span style=&quot;color: #89ca78&quot;&gt;/addrollbackmessage&lt;/span&gt;&lt;/pre&gt;" style="ellipse;shape=cloud;whiteSpace=wrap;html=1;" parent="1" vertex="1">
          <mxGeometry x="260" y="900" width="120" height="80" as="geometry" />
        </mxCell>
        <mxCell id="TLTKrxweP8_kDLISeRTv-70" value="保存回退的理由" style="text;html=1;strokeColor=none;fillColor=none;align=center;verticalAlign=middle;whiteSpace=wrap;rounded=0;" parent="1" vertex="1">
          <mxGeometry x="260" y="870" width="100" height="20" as="geometry" />
        </mxCell>
        <mxCell id="TLTKrxweP8_kDLISeRTv-78" style="edgeStyle=orthogonalEdgeStyle;rounded=0;orthogonalLoop=1;jettySize=auto;html=1;entryX=0;entryY=0.5;entryDx=0;entryDy=0;" parent="1" source="TLTKrxweP8_kDLISeRTv-72" target="TLTKrxweP8_kDLISeRTv-77" edge="1">
          <mxGeometry relative="1" as="geometry" />
        </mxCell>
        <mxCell id="TLTKrxweP8_kDLISeRTv-72" value="&lt;pre style=&quot;background-color: #282c34 ; color: #bbbbbb ; font-family: &amp;#34;jetbrains mono&amp;#34; , monospace ; font-size: 10.5pt&quot;&gt;&lt;span style=&quot;color: #ef596f&quot;&gt;taskReformKeyMessageService&lt;/span&gt;&lt;/pre&gt;" style="shape=step;perimeter=stepPerimeter;whiteSpace=wrap;html=1;fixedSize=1;" parent="1" vertex="1">
          <mxGeometry x="830" y="900" width="120" height="80" as="geometry" />
        </mxCell>
        <mxCell id="TLTKrxweP8_kDLISeRTv-75" style="edgeStyle=orthogonalEdgeStyle;rounded=0;orthogonalLoop=1;jettySize=auto;html=1;entryX=0;entryY=0.5;entryDx=0;entryDy=0;" parent="1" source="TLTKrxweP8_kDLISeRTv-74" target="TLTKrxweP8_kDLISeRTv-72" edge="1">
          <mxGeometry relative="1" as="geometry" />
        </mxCell>
        <mxCell id="TLTKrxweP8_kDLISeRTv-74" value="&lt;pre style=&quot;background-color: #282c34 ; color: #bbbbbb ; font-family: &amp;#34;jetbrains mono&amp;#34; , monospace ; font-size: 10.5pt&quot;&gt;&lt;span style=&quot;color: #e5c07b&quot;&gt;TaskReformKeyMessage&lt;/span&gt;&lt;/pre&gt;" style="ellipse;whiteSpace=wrap;html=1;" parent="1" vertex="1">
          <mxGeometry x="600" y="900" width="120" height="80" as="geometry" />
        </mxCell>
        <mxCell id="TLTKrxweP8_kDLISeRTv-77" value="&lt;pre style=&quot;background-color: #282c34 ; color: #bbbbbb ; font-family: &amp;#34;jetbrains mono&amp;#34; , monospace ; font-size: 10.5pt&quot;&gt;&lt;span style=&quot;color: #61afef&quot;&gt;save&lt;/span&gt;&lt;/pre&gt;" style="rhombus;whiteSpace=wrap;html=1;" parent="1" vertex="1">
          <mxGeometry x="1030" y="900" width="80" height="80" as="geometry" />
        </mxCell>
        <mxCell id="TLTKrxweP8_kDLISeRTv-81" style="edgeStyle=orthogonalEdgeStyle;rounded=0;orthogonalLoop=1;jettySize=auto;html=1;entryX=0;entryY=0.5;entryDx=0;entryDy=0;" parent="1" source="TLTKrxweP8_kDLISeRTv-79" target="TLTKrxweP8_kDLISeRTv-82" edge="1">
          <mxGeometry relative="1" as="geometry">
            <mxPoint x="550" y="1090" as="targetPoint" />
          </mxGeometry>
        </mxCell>
        <mxCell id="TLTKrxweP8_kDLISeRTv-79" value="&lt;pre style=&quot;background-color: #282c34 ; color: #bbbbbb ; font-family: &amp;#34;jetbrains mono&amp;#34; , monospace ; font-size: 10.5pt&quot;&gt;&lt;span style=&quot;color: #89ca78&quot;&gt;/refineFeedbackTargetApprovalBack&lt;/span&gt;&lt;/pre&gt;" style="ellipse;shape=cloud;whiteSpace=wrap;html=1;" parent="1" vertex="1">
          <mxGeometry x="260" y="1050" width="120" height="80" as="geometry" />
        </mxCell>
        <mxCell id="TLTKrxweP8_kDLISeRTv-80" value="任务的退回" style="text;html=1;strokeColor=none;fillColor=none;align=center;verticalAlign=middle;whiteSpace=wrap;rounded=0;" parent="1" vertex="1">
          <mxGeometry x="280" y="1030" width="70" height="20" as="geometry" />
        </mxCell>
        <mxCell id="TLTKrxweP8_kDLISeRTv-84" style="edgeStyle=orthogonalEdgeStyle;rounded=0;orthogonalLoop=1;jettySize=auto;html=1;entryX=0.5;entryY=0;entryDx=0;entryDy=0;" parent="1" source="TLTKrxweP8_kDLISeRTv-82" target="TLTKrxweP8_kDLISeRTv-85" edge="1">
          <mxGeometry relative="1" as="geometry">
            <mxPoint x="615" y="1190" as="targetPoint" />
          </mxGeometry>
        </mxCell>
        <mxCell id="TLTKrxweP8_kDLISeRTv-119" style="edgeStyle=orthogonalEdgeStyle;curved=1;rounded=0;orthogonalLoop=1;jettySize=auto;html=1;entryX=0;entryY=0.5;entryDx=0;entryDy=0;" parent="1" source="TLTKrxweP8_kDLISeRTv-82" target="TLTKrxweP8_kDLISeRTv-120" edge="1">
          <mxGeometry relative="1" as="geometry">
            <mxPoint x="1110" y="1090" as="targetPoint" />
          </mxGeometry>
        </mxCell>
        <mxCell id="TLTKrxweP8_kDLISeRTv-82" value="&lt;pre style=&quot;background-color: #282c34 ; color: #bbbbbb ; font-family: &amp;#34;jetbrains mono&amp;#34; , monospace ; font-size: 10.5pt&quot;&gt;&lt;span style=&quot;color: #61afef&quot;&gt;refineTargetApprovalBack()&lt;/span&gt;&lt;/pre&gt;" style="shape=step;perimeter=stepPerimeter;whiteSpace=wrap;html=1;fixedSize=1;" parent="1" vertex="1">
          <mxGeometry x="555" y="1050" width="120" height="80" as="geometry" />
        </mxCell>
        <mxCell id="TLTKrxweP8_kDLISeRTv-100" style="edgeStyle=orthogonalEdgeStyle;rounded=0;orthogonalLoop=1;jettySize=auto;html=1;entryX=0.25;entryY=1;entryDx=0;entryDy=0;curved=1;" parent="1" source="TLTKrxweP8_kDLISeRTv-83" target="TLTKrxweP8_kDLISeRTv-96" edge="1">
          <mxGeometry relative="1" as="geometry">
            <Array as="points">
              <mxPoint x="460" y="1070" />
              <mxPoint x="460" y="1340" />
              <mxPoint x="1075" y="1340" />
            </Array>
          </mxGeometry>
        </mxCell>
        <mxCell id="TLTKrxweP8_kDLISeRTv-83" value="&lt;pre style=&quot;background-color: #282c34 ; color: #bbbbbb ; font-family: &amp;#34;jetbrains mono&amp;#34; , monospace ; font-size: 10.5pt&quot;&gt;&lt;span style=&quot;color: #e5c07b&quot;&gt;TaskApprovalBackBo&lt;/span&gt;&lt;/pre&gt;" style="text;html=1;strokeColor=none;fillColor=none;align=center;verticalAlign=middle;whiteSpace=wrap;rounded=0;" parent="1" vertex="1">
          <mxGeometry x="470" y="1060" width="40" height="20" as="geometry" />
        </mxCell>
        <mxCell id="TLTKrxweP8_kDLISeRTv-87" style="edgeStyle=orthogonalEdgeStyle;rounded=0;orthogonalLoop=1;jettySize=auto;html=1;entryX=0.5;entryY=0;entryDx=0;entryDy=0;entryPerimeter=0;" parent="1" source="TLTKrxweP8_kDLISeRTv-85" target="TLTKrxweP8_kDLISeRTv-86" edge="1">
          <mxGeometry relative="1" as="geometry" />
        </mxCell>
        <mxCell id="TLTKrxweP8_kDLISeRTv-91" style="edgeStyle=orthogonalEdgeStyle;rounded=0;orthogonalLoop=1;jettySize=auto;html=1;entryX=0;entryY=0.5;entryDx=0;entryDy=0;" parent="1" source="TLTKrxweP8_kDLISeRTv-85" target="TLTKrxweP8_kDLISeRTv-90" edge="1">
          <mxGeometry relative="1" as="geometry" />
        </mxCell>
        <mxCell id="TLTKrxweP8_kDLISeRTv-85" value="&lt;pre style=&quot;background-color: #282c34 ; color: #bbbbbb ; font-family: &amp;#34;jetbrains mono&amp;#34; , monospace ; font-size: 10.5pt&quot;&gt;&lt;span style=&quot;color: #ef596f&quot;&gt;taskReformKeyService&lt;/span&gt;&lt;/pre&gt;" style="shape=step;perimeter=stepPerimeter;whiteSpace=wrap;html=1;fixedSize=1;" parent="1" vertex="1">
          <mxGeometry x="555" y="1200" width="120" height="80" as="geometry" />
        </mxCell>
        <mxCell id="TLTKrxweP8_kDLISeRTv-89" style="edgeStyle=orthogonalEdgeStyle;rounded=0;orthogonalLoop=1;jettySize=auto;html=1;entryX=0.5;entryY=1;entryDx=0;entryDy=0;" parent="1" source="TLTKrxweP8_kDLISeRTv-86" target="TLTKrxweP8_kDLISeRTv-90" edge="1">
          <mxGeometry relative="1" as="geometry">
            <mxPoint x="800" y="1270" as="targetPoint" />
          </mxGeometry>
        </mxCell>
        <mxCell id="TLTKrxweP8_kDLISeRTv-86" value="&lt;pre style=&quot;background-color: #282c34 ; color: #bbbbbb ; font-family: &amp;#34;jetbrains mono&amp;#34; , monospace ; font-size: 10.5pt&quot;&gt;&lt;span style=&quot;color: #89ca78&quot;&gt;t_task_reform_key&lt;/span&gt;&lt;/pre&gt;" style="shape=cylinder3;whiteSpace=wrap;html=1;boundedLbl=1;backgroundOutline=1;size=15;" parent="1" vertex="1">
          <mxGeometry x="585" y="1340" width="60" height="80" as="geometry" />
        </mxCell>
        <mxCell id="TLTKrxweP8_kDLISeRTv-88" value="&lt;span style=&quot;color: rgb(97 , 175 , 239) ; background-color: rgb(40 , 44 , 52) ; font-family: &amp;#34;jetbrains mono&amp;#34; , monospace ; font-size: 10.5pt&quot;&gt;By_FeedbackTaskInfoId&lt;/span&gt;" style="text;html=1;strokeColor=none;fillColor=none;align=center;verticalAlign=middle;whiteSpace=wrap;rounded=0;" parent="1" vertex="1">
          <mxGeometry x="645" y="1300" width="40" height="20" as="geometry" />
        </mxCell>
        <mxCell id="TLTKrxweP8_kDLISeRTv-90" value="&lt;pre style=&quot;background-color: #282c34 ; color: #bbbbbb ; font-family: &amp;#34;jetbrains mono&amp;#34; , monospace ; font-size: 10.5pt&quot;&gt;&lt;span style=&quot;color: #e5c07b&quot;&gt;TaskReformKey&lt;/span&gt;&lt;/pre&gt;" style="ellipse;whiteSpace=wrap;html=1;" parent="1" vertex="1">
          <mxGeometry x="750" y="1200" width="120" height="80" as="geometry" />
        </mxCell>
        <mxCell id="TLTKrxweP8_kDLISeRTv-93" value="如果为null，直接结束" style="text;html=1;strokeColor=none;fillColor=none;align=center;verticalAlign=middle;whiteSpace=wrap;rounded=0;" parent="1" vertex="1">
          <mxGeometry x="770" y="1170" width="80" height="20" as="geometry" />
        </mxCell>
        <mxCell id="TLTKrxweP8_kDLISeRTv-95" style="edgeStyle=orthogonalEdgeStyle;rounded=0;orthogonalLoop=1;jettySize=auto;html=1;entryX=0.5;entryY=0;entryDx=0;entryDy=0;entryPerimeter=0;" parent="1" source="TLTKrxweP8_kDLISeRTv-94" target="TLTKrxweP8_kDLISeRTv-97" edge="1">
          <mxGeometry relative="1" as="geometry">
            <mxPoint x="1050" y="1330" as="targetPoint" />
          </mxGeometry>
        </mxCell>
        <mxCell id="TLTKrxweP8_kDLISeRTv-94" value="&lt;pre style=&quot;background-color: #282c34 ; color: #bbbbbb ; font-family: &amp;#34;jetbrains mono&amp;#34; , monospace ; font-size: 10.5pt&quot;&gt;&lt;span style=&quot;color: #ef596f&quot;&gt;taskReformKeyFeedbackTaskDepartmentService&lt;/span&gt;&lt;/pre&gt;" style="shape=step;perimeter=stepPerimeter;whiteSpace=wrap;html=1;fixedSize=1;" parent="1" vertex="1">
          <mxGeometry x="990" y="1200" width="120" height="80" as="geometry" />
        </mxCell>
        <mxCell id="TLTKrxweP8_kDLISeRTv-96" value="getById" style="text;html=1;strokeColor=none;fillColor=none;align=center;verticalAlign=middle;whiteSpace=wrap;rounded=0;" parent="1" vertex="1">
          <mxGeometry x="1065" y="1300" width="40" height="20" as="geometry" />
        </mxCell>
        <mxCell id="TLTKrxweP8_kDLISeRTv-102" style="edgeStyle=orthogonalEdgeStyle;curved=1;rounded=0;orthogonalLoop=1;jettySize=auto;html=1;entryX=0.5;entryY=1;entryDx=0;entryDy=0;" parent="1" source="TLTKrxweP8_kDLISeRTv-97" target="TLTKrxweP8_kDLISeRTv-103" edge="1">
          <mxGeometry relative="1" as="geometry">
            <mxPoint x="1300" y="1240" as="targetPoint" />
          </mxGeometry>
        </mxCell>
        <mxCell id="TLTKrxweP8_kDLISeRTv-97" value="&lt;pre style=&quot;background-color: #282c34 ; color: #bbbbbb ; font-family: &amp;#34;jetbrains mono&amp;#34; , monospace ; font-size: 10.5pt&quot;&gt;&lt;span style=&quot;color: #89ca78&quot;&gt;t_task_reform_key_feedback_task_department&lt;/span&gt;&lt;/pre&gt;" style="shape=cylinder3;whiteSpace=wrap;html=1;boundedLbl=1;backgroundOutline=1;size=15;" parent="1" vertex="1">
          <mxGeometry x="1020" y="1360" width="60" height="80" as="geometry" />
        </mxCell>
        <mxCell id="TLTKrxweP8_kDLISeRTv-101" value="&lt;pre style=&quot;background-color: #282c34 ; color: #bbbbbb ; font-family: &amp;#34;jetbrains mono&amp;#34; , monospace ; font-size: 10.5pt&quot;&gt;&lt;span style=&quot;color: #ef596f&quot;&gt;departmentId&lt;/span&gt;&lt;/pre&gt;" style="text;html=1;strokeColor=none;fillColor=none;align=center;verticalAlign=middle;whiteSpace=wrap;rounded=0;" parent="1" vertex="1">
          <mxGeometry x="425" y="1250" width="40" height="20" as="geometry" />
        </mxCell>
        <mxCell id="TLTKrxweP8_kDLISeRTv-104" style="edgeStyle=orthogonalEdgeStyle;curved=1;rounded=0;orthogonalLoop=1;jettySize=auto;html=1;" parent="1" source="TLTKrxweP8_kDLISeRTv-103" target="TLTKrxweP8_kDLISeRTv-106" edge="1">
          <mxGeometry relative="1" as="geometry">
            <mxPoint x="1500" y="1240" as="targetPoint" />
          </mxGeometry>
        </mxCell>
        <mxCell id="TLTKrxweP8_kDLISeRTv-117" style="edgeStyle=orthogonalEdgeStyle;curved=1;rounded=0;orthogonalLoop=1;jettySize=auto;html=1;entryX=0.5;entryY=1;entryDx=0;entryDy=0;" parent="1" source="TLTKrxweP8_kDLISeRTv-103" target="TLTKrxweP8_kDLISeRTv-110" edge="1">
          <mxGeometry relative="1" as="geometry">
            <Array as="points">
              <mxPoint x="1340" y="1390" />
              <mxPoint x="1840" y="1390" />
            </Array>
          </mxGeometry>
        </mxCell>
        <mxCell id="TLTKrxweP8_kDLISeRTv-103" value="&lt;pre style=&quot;background-color: #282c34 ; color: #bbbbbb ; font-family: &amp;#34;jetbrains mono&amp;#34; , monospace ; font-size: 10.5pt&quot;&gt;&lt;span style=&quot;color: #e5c07b&quot;&gt;TaskReformKeyFeedbackTaskDepartment&lt;/span&gt;&lt;/pre&gt;" style="ellipse;whiteSpace=wrap;html=1;" parent="1" vertex="1">
          <mxGeometry x="1280" y="1200" width="120" height="80" as="geometry" />
        </mxCell>
        <mxCell id="TLTKrxweP8_kDLISeRTv-109" style="edgeStyle=orthogonalEdgeStyle;curved=1;rounded=0;orthogonalLoop=1;jettySize=auto;html=1;entryX=0;entryY=0.5;entryDx=0;entryDy=0;" parent="1" source="TLTKrxweP8_kDLISeRTv-106" target="TLTKrxweP8_kDLISeRTv-110" edge="1">
          <mxGeometry relative="1" as="geometry">
            <mxPoint x="1810" y="1240" as="targetPoint" />
          </mxGeometry>
        </mxCell>
        <mxCell id="TLTKrxweP8_kDLISeRTv-106" value="&lt;pre style=&quot;background-color: #282c34 ; color: #bbbbbb ; font-family: &amp;#34;jetbrains mono&amp;#34; , monospace ; font-size: 10.5pt&quot;&gt;&lt;span style=&quot;color: #61afef&quot;&gt;completeTask&lt;/span&gt;&lt;/pre&gt;" style="shape=step;perimeter=stepPerimeter;whiteSpace=wrap;html=1;fixedSize=1;" parent="1" vertex="1">
          <mxGeometry x="1530" y="1200" width="120" height="80" as="geometry" />
        </mxCell>
        <mxCell id="TLTKrxweP8_kDLISeRTv-108" value="退回任务（false" style="text;html=1;strokeColor=none;fillColor=none;align=center;verticalAlign=middle;whiteSpace=wrap;rounded=0;" parent="1" vertex="1">
          <mxGeometry x="1570" y="1170" width="40" height="20" as="geometry" />
        </mxCell>
        <mxCell id="TLTKrxweP8_kDLISeRTv-118" style="edgeStyle=orthogonalEdgeStyle;curved=1;rounded=0;orthogonalLoop=1;jettySize=auto;html=1;entryX=0.5;entryY=1;entryDx=0;entryDy=0;entryPerimeter=0;" parent="1" source="TLTKrxweP8_kDLISeRTv-110" target="TLTKrxweP8_kDLISeRTv-97" edge="1">
          <mxGeometry relative="1" as="geometry">
            <Array as="points">
              <mxPoint x="1840" y="1460" />
              <mxPoint x="1050" y="1460" />
            </Array>
          </mxGeometry>
        </mxCell>
        <mxCell id="TLTKrxweP8_kDLISeRTv-110" value="&lt;pre style=&quot;background-color: #282c34 ; color: #bbbbbb ; font-family: &amp;#34;jetbrains mono&amp;#34; , monospace ; font-size: 10.5pt&quot;&gt;&lt;span style=&quot;color: #ef596f&quot;&gt;taskReformKeyFeedbackTaskDepartmentDao&lt;/span&gt;&lt;/pre&gt;" style="shape=step;perimeter=stepPerimeter;whiteSpace=wrap;html=1;fixedSize=1;" parent="1" vertex="1">
          <mxGeometry x="1780" y="1200" width="120" height="80" as="geometry" />
        </mxCell>
        <mxCell id="TLTKrxweP8_kDLISeRTv-113" value="&lt;pre style=&quot;background-color: #282c34 ; color: #bbbbbb ; font-family: &amp;#34;jetbrains mono&amp;#34; , monospace ; font-size: 10.5pt&quot;&gt;&lt;span style=&quot;color: #61afef&quot;&gt;Status&lt;/span&gt;&lt;span style=&quot;color: #d19a66&quot;&gt;(1)：&lt;/span&gt;未反馈&lt;/pre&gt;&lt;pre style=&quot;background-color: #282c34 ; color: #bbbbbb ; font-family: &amp;#34;jetbrains mono&amp;#34; , monospace ; font-size: 10.5pt&quot;&gt;&lt;pre style=&quot;font-family: &amp;#34;jetbrains mono&amp;#34; , monospace ; font-size: 10.5pt&quot;&gt;&lt;span style=&quot;color: #61afef&quot;&gt;ZbStatus&lt;/span&gt;&lt;span style=&quot;color: #d19a66&quot;&gt;(3)：退回&lt;/span&gt;&lt;/pre&gt;&lt;/pre&gt;" style="text;html=1;strokeColor=none;fillColor=none;align=center;verticalAlign=middle;whiteSpace=wrap;rounded=0;" parent="1" vertex="1">
          <mxGeometry x="1520" y="1480" width="40" height="20" as="geometry" />
        </mxCell>
        <mxCell id="TLTKrxweP8_kDLISeRTv-120" value="&lt;pre style=&quot;background-color: #282c34 ; color: #bbbbbb ; font-family: &amp;#34;jetbrains mono&amp;#34; , monospace ; font-size: 10.5pt&quot;&gt;&lt;span style=&quot;color: #61afef&quot;&gt;getFeedbackOperateInfo（）&lt;/span&gt;&lt;/pre&gt;" style="shape=step;perimeter=stepPerimeter;whiteSpace=wrap;html=1;fixedSize=1;" parent="1" vertex="1">
          <mxGeometry x="1110" y="1050" width="120" height="80" as="geometry" />
        </mxCell>
        <mxCell id="TLTKrxweP8_kDLISeRTv-121" value="退回，修改状态未退回" style="text;html=1;strokeColor=none;fillColor=none;align=center;verticalAlign=middle;whiteSpace=wrap;rounded=0;" parent="1" vertex="1">
          <mxGeometry x="565" y="1020" width="90" height="20" as="geometry" />
        </mxCell>
        <mxCell id="TLTKrxweP8_kDLISeRTv-122" value="？？？？？？" style="text;html=1;strokeColor=none;fillColor=none;align=center;verticalAlign=middle;whiteSpace=wrap;rounded=0;" parent="1" vertex="1">
          <mxGeometry x="1310" y="1080" width="40" height="20" as="geometry" />
        </mxCell>
        <mxCell id="TLTKrxweP8_kDLISeRTv-123" value="应该是防止提交审批的过程中，钱都单位直接申请办结了，如果是就应该让前端刷新页面" style="text;html=1;strokeColor=none;fillColor=none;align=center;verticalAlign=middle;whiteSpace=wrap;rounded=0;" parent="1" vertex="1">
          <mxGeometry x="1260" y="1040" width="220" height="20" as="geometry" />
        </mxCell>
        <mxCell id="TLTKrxweP8_kDLISeRTv-124" value="" style="shape=curlyBracket;whiteSpace=wrap;html=1;rounded=1;size=0.5;" parent="1" vertex="1">
          <mxGeometry x="160" y="900" width="20" height="230" as="geometry" />
        </mxCell>
        <mxCell id="TLTKrxweP8_kDLISeRTv-125" value="任务回退的流程" style="text;html=1;strokeColor=none;fillColor=none;align=center;verticalAlign=middle;whiteSpace=wrap;rounded=0;" parent="1" vertex="1">
          <mxGeometry x="60" y="1005" width="90" height="20" as="geometry" />
        </mxCell>
        <mxCell id="TLTKrxweP8_kDLISeRTv-128" style="edgeStyle=orthogonalEdgeStyle;curved=1;rounded=0;orthogonalLoop=1;jettySize=auto;html=1;entryX=0;entryY=0.5;entryDx=0;entryDy=0;" parent="1" source="TLTKrxweP8_kDLISeRTv-126" target="TLTKrxweP8_kDLISeRTv-129" edge="1">
          <mxGeometry relative="1" as="geometry">
            <mxPoint x="510" y="1590" as="targetPoint" />
          </mxGeometry>
        </mxCell>
        <mxCell id="TLTKrxweP8_kDLISeRTv-126" value="&lt;pre style=&quot;background-color: #282c34 ; color: #bbbbbb ; font-family: &amp;#34;jetbrains mono&amp;#34; , monospace ; font-size: 10.5pt&quot;&gt;&lt;span style=&quot;color: #89ca78&quot;&gt;/pilotAcceptFeedback&lt;/span&gt;&lt;/pre&gt;" style="ellipse;shape=cloud;whiteSpace=wrap;html=1;" parent="1" vertex="1">
          <mxGeometry x="275" y="1550" width="120" height="80" as="geometry" />
        </mxCell>
        <mxCell id="TLTKrxweP8_kDLISeRTv-127" value="接受牵头的反馈" style="text;html=1;strokeColor=none;fillColor=none;align=center;verticalAlign=middle;whiteSpace=wrap;rounded=0;" parent="1" vertex="1">
          <mxGeometry x="275" y="1520" width="105" height="20" as="geometry" />
        </mxCell>
        <mxCell id="TLTKrxweP8_kDLISeRTv-131" style="edgeStyle=orthogonalEdgeStyle;curved=1;rounded=0;orthogonalLoop=1;jettySize=auto;html=1;entryX=0;entryY=0.5;entryDx=0;entryDy=0;entryPerimeter=0;" parent="1" source="TLTKrxweP8_kDLISeRTv-129" target="TLTKrxweP8_kDLISeRTv-136" edge="1">
          <mxGeometry relative="1" as="geometry">
            <mxPoint x="930" y="1590" as="targetPoint" />
          </mxGeometry>
        </mxCell>
        <mxCell id="TLTKrxweP8_kDLISeRTv-129" value="&lt;pre style=&quot;background-color: #282c34 ; color: #bbbbbb ; font-family: &amp;#34;jetbrains mono&amp;#34; , monospace ; font-size: 10.5pt&quot;&gt;&lt;span style=&quot;color: #ef596f&quot;&gt;taskReformKeyFeedbackTaskDepartmentService&lt;/span&gt;&lt;/pre&gt;" style="shape=step;perimeter=stepPerimeter;whiteSpace=wrap;html=1;fixedSize=1;" parent="1" vertex="1">
          <mxGeometry x="525" y="1550" width="120" height="80" as="geometry" />
        </mxCell>
        <mxCell id="TLTKrxweP8_kDLISeRTv-130" value="获取部门的反馈信息" style="text;html=1;strokeColor=none;fillColor=none;align=center;verticalAlign=middle;whiteSpace=wrap;rounded=0;" parent="1" vertex="1">
          <mxGeometry x="500" y="1520" width="145" height="20" as="geometry" />
        </mxCell>
        <mxCell id="TLTKrxweP8_kDLISeRTv-135" value="&lt;pre style=&quot;background-color: #282c34 ; color: #bbbbbb ; font-family: &amp;#34;jetbrains mono&amp;#34; , monospace ; font-size: 10.5pt&quot;&gt;&lt;span style=&quot;color: #61afef&quot;&gt;Status&lt;/span&gt;&lt;span style=&quot;color: #d19a66&quot;&gt;(2)：已采纳&lt;/span&gt;&lt;/pre&gt;&lt;pre style=&quot;background-color: #282c34 ; color: #bbbbbb ; font-family: &amp;#34;jetbrains mono&amp;#34; , monospace ; font-size: 10.5pt&quot;&gt;&lt;pre style=&quot;font-family: &amp;#34;jetbrains mono&amp;#34; , monospace ; font-size: 10.5pt&quot;&gt;&lt;span style=&quot;color: #61afef&quot;&gt;ZbStatus&lt;/span&gt;&lt;span style=&quot;color: #d19a66&quot;&gt;(2)：已审核&lt;/span&gt;&lt;/pre&gt;&lt;/pre&gt;" style="text;html=1;strokeColor=none;fillColor=none;align=center;verticalAlign=middle;whiteSpace=wrap;rounded=0;" parent="1" vertex="1">
          <mxGeometry x="825" y="1540" width="40" height="20" as="geometry" />
        </mxCell>
        <mxCell id="TLTKrxweP8_kDLISeRTv-136" value="&lt;pre style=&quot;background-color: #282c34 ; color: #bbbbbb ; font-family: &amp;#34;jetbrains mono&amp;#34; , monospace ; font-size: 10.5pt&quot;&gt;&lt;span style=&quot;color: #89ca78&quot;&gt;t_task_reform_key_feedback_task_department&lt;/span&gt;&lt;/pre&gt;" style="shape=cylinder3;whiteSpace=wrap;html=1;boundedLbl=1;backgroundOutline=1;size=15;" parent="1" vertex="1">
          <mxGeometry x="970" y="1550" width="60" height="80" as="geometry" />
        </mxCell>
        <mxCell id="TLTKrxweP8_kDLISeRTv-138" style="edgeStyle=orthogonalEdgeStyle;curved=1;rounded=0;orthogonalLoop=1;jettySize=auto;html=1;" parent="1" source="TLTKrxweP8_kDLISeRTv-137" edge="1">
          <mxGeometry relative="1" as="geometry">
            <mxPoint x="550" y="1730" as="targetPoint" />
          </mxGeometry>
        </mxCell>
        <mxCell id="TLTKrxweP8_kDLISeRTv-137" value="&lt;pre style=&quot;background-color: #282c34 ; color: #bbbbbb ; font-family: &amp;#34;jetbrains mono&amp;#34; , monospace ; font-size: 10.5pt&quot;&gt;&lt;span style=&quot;color: #89ca78&quot;&gt;/refineFeedbackSubmitApproval&lt;/span&gt;&lt;/pre&gt;" style="ellipse;shape=cloud;whiteSpace=wrap;html=1;" parent="1" vertex="1">
          <mxGeometry x="275" y="1690" width="120" height="80" as="geometry" />
        </mxCell>
        <mxCell id="TLTKrxweP8_kDLISeRTv-139" value="&lt;pre style=&quot;background-color: #282c34 ; color: #bbbbbb ; font-family: &amp;#34;jetbrains mono&amp;#34; , monospace ; font-size: 10.5pt&quot;&gt;&lt;span style=&quot;color: #61afef&quot;&gt;completeTask&lt;/span&gt;&lt;/pre&gt;" style="rhombus;whiteSpace=wrap;html=1;" parent="1" vertex="1">
          <mxGeometry x="555" y="1690" width="80" height="80" as="geometry" />
        </mxCell>
        <mxCell id="s6v7aNHdyabqT3WJLsEL-3" value="反馈采纳" style="text;html=1;strokeColor=none;fillColor=none;align=center;verticalAlign=middle;whiteSpace=wrap;rounded=0;" vertex="1" parent="1">
          <mxGeometry x="110" y="1560" width="40" height="20" as="geometry" />
        </mxCell>
        <mxCell id="s6v7aNHdyabqT3WJLsEL-5" value="创建人反馈提交" style="text;html=1;strokeColor=none;fillColor=none;align=center;verticalAlign=middle;whiteSpace=wrap;rounded=0;" vertex="1" parent="1">
          <mxGeometry x="110" y="1730" width="40" height="20" as="geometry" />
        </mxCell>
      </root>
    </mxGraphModel>
  </diagram>
</mxfile>
